<svg width="166" height="53" viewBox="0 0 166 53" fill="none" xmlns="http://www.w3.org/2000/svg">
<path fill-rule="evenodd" clip-rule="evenodd" d="M4.62698 11.0771H0V39.0001H4.62698V28.139H18.155V39.0001H22.8212V11.0771H18.155V23.5943H4.62698V11.0771ZM26.2973 18.0001H39.1485C44.4997 18.0001 46.6078 20.9433 46.6078 24.9206V34.7842C46.6078 37.8069 45.797 39.0001 42.189 39.0001H32.1756C27.1081 39.0001 25 36.574 25 32.5967C25 28.7785 26.9459 26.5513 32.2161 26.5513H42.3917V24.9603C42.3917 23.3297 41.4592 22.0569 39.1079 22.0569H26.2973V18.0001ZM41.216 34.9035C42.0673 34.9035 42.3917 34.5853 42.3917 33.8297V29.8922H32.2972C30.027 29.8922 29.2162 30.8069 29.2162 32.3581C29.2162 33.9092 30.0675 34.9035 32.2161 34.9035H41.216ZM54.4723 18.0001H63.31C70.5667 18.0001 74.0936 21.3808 74.0936 27.1876V39.0001H69.7559V27.1876C69.7559 23.8865 67.8099 22.0569 63.31 22.0569H56.2966C55.9317 22.0569 55.7696 22.2558 55.7696 22.6535V39.0001H51.4723V21.2615C51.4723 18.7956 52.3237 18.0001 54.4723 18.0001ZM96.1487 18.0001H84.2704C79.284 18.0001 77.2976 20.3467 77.2976 24.1251C77.2976 27.3467 78.757 30.2501 84.6758 30.2501H89.7433C91.892 30.2501 92.7838 30.9263 92.7838 32.5967C92.7838 34.2274 91.973 34.9035 89.9866 34.9035H77.5408V39.0001H89.9866C95.0135 39.0001 97 36.3751 97 32.6365C97 29.3751 95.5 26.7103 89.5812 26.7103H84.5542C82.1624 26.7103 81.5137 25.9149 81.5137 24.4433C81.5137 22.8524 82.3245 22.0569 84.311 22.0569H96.1487V18.0001Z" fill="white"/>
<path fill-rule="evenodd" clip-rule="evenodd" d="M154.795 18.0259C154.93 17.2039 155 16.3601 155 15.5C155 6.93959 148.06 0 139.5 0C133.295 0 127.941 3.64647 125.465 8.9135C123.076 7.69017 120.369 7 117.5 7C107.835 7 100 14.835 100 24.5C100 27.1928 100.608 29.7435 101.695 32.0223L106.469 19.6594C107.257 17.7336 108.707 17 110.944 17C113.15 17 114.6 17.7336 115.357 19.6594L122.542 39H118.414L111.953 21.4017C111.764 20.9127 111.417 20.6987 110.913 20.6987C110.409 20.6987 110.062 20.9127 109.841 21.4017L104.266 35.9505C107.475 39.6559 112.214 42 117.5 42C118.005 42 118.506 41.9786 119 41.9366V42H154H155V41.9589C161.16 41.4508 166 36.2907 166 30C166 23.6398 161.052 18.4353 154.795 18.0259ZM128 17H124.281V39H128V17Z" fill="#F9423A"/>
<path d="M3.38396 53C3.23575 53 3.12254 52.964 3.04433 52.8921C2.96611 52.8161 2.927 52.7062 2.927 52.5622V45.8878H0.456958C0.308755 45.8878 0.195545 45.8518 0.117327 45.7798C0.039109 45.7039 0 45.5939 0 45.45C0 45.3061 0.039109 45.1961 0.117327 45.1202C0.195545 45.0442 0.308755 45.0062 0.456958 45.0062H6.31096C6.45916 45.0062 6.57031 45.0442 6.64441 45.1202C6.72263 45.1961 6.76174 45.3061 6.76174 45.45C6.76174 45.5939 6.72263 45.7039 6.64441 45.7798C6.57031 45.8518 6.45916 45.8878 6.31096 45.8878H3.83474V52.5622C3.83474 52.6982 3.79563 52.8061 3.71741 52.8861C3.63919 52.962 3.52804 53 3.38396 53Z" fill="#C1C1C1"/>
<path d="M10.876 53C10.5714 53 10.419 52.8521 10.419 52.5562V45.444C10.419 45.1481 10.5714 45.0002 10.876 45.0002H15.3715C15.6761 45.0002 15.8284 45.1481 15.8284 45.444C15.8284 45.7358 15.6761 45.8818 15.3715 45.8818H11.3268V48.5204H13.9141C14.2188 48.5204 14.3711 48.6663 14.3711 48.9581C14.3711 49.254 14.2188 49.4019 13.9141 49.4019H11.3268V52.1185H15.3715C15.6761 52.1185 15.8284 52.2644 15.8284 52.5562C15.8284 52.8521 15.6761 53 15.3715 53H10.876Z" fill="#C1C1C1"/>
<path d="M22.0015 53C21.0752 53 20.3919 52.7881 19.9514 52.3643C19.515 51.9366 19.2968 51.2729 19.2968 50.3734V47.6268C19.2968 46.7193 19.515 46.0537 19.9514 45.6299C20.3877 45.2061 21.067 44.9962 21.9892 45.0002H23.4835C24.2492 45.0002 24.8297 45.1561 25.2249 45.468C25.6201 45.7758 25.8465 46.2636 25.9042 46.9312C25.9248 47.0791 25.8959 47.1931 25.8177 47.273C25.7395 47.349 25.6242 47.387 25.4719 47.387C25.1961 47.387 25.0376 47.239 24.9964 46.9432C24.9594 46.5354 24.8256 46.2576 24.595 46.1096C24.3645 45.9577 23.994 45.8818 23.4835 45.8818H21.9892C21.5404 45.8818 21.1864 45.9357 20.927 46.0437C20.6677 46.1476 20.4824 46.3275 20.3713 46.5834C20.2601 46.8353 20.2046 47.1831 20.2046 47.6268V50.3734C20.2046 50.8132 20.2601 51.161 20.3713 51.4168C20.4824 51.6687 20.6677 51.8486 20.927 51.9566C21.1905 52.0645 21.5487 52.1185 22.0015 52.1185H23.4835C23.994 52.1185 24.3645 52.0445 24.595 51.8966C24.8256 51.7447 24.9594 51.4648 24.9964 51.057C25.0376 50.7612 25.1961 50.6133 25.4719 50.6133C25.6242 50.6133 25.7395 50.6532 25.8177 50.7332C25.8959 50.8092 25.9248 50.9211 25.9042 51.069C25.8465 51.7407 25.6201 52.2304 25.2249 52.5382C24.8297 52.8461 24.2492 53 23.4835 53H22.0015Z" fill="#C1C1C1"/>
<path d="M30.5731 53C30.4496 53 30.3426 52.956 30.252 52.8681C30.1615 52.7801 30.1162 52.6762 30.1162 52.5562V45.444C30.1162 45.3241 30.1615 45.2201 30.252 45.1322C30.3426 45.0442 30.4496 45.0002 30.5731 45.0002C30.6966 45.0002 30.8016 45.0442 30.8881 45.1322C30.9786 45.2201 31.0239 45.3241 31.0239 45.444V48.5084H36.1122V45.444C36.1122 45.3241 36.1554 45.2201 36.2419 45.1322C36.3283 45.0442 36.4354 45.0002 36.563 45.0002C36.6865 45.0002 36.7935 45.0442 36.8841 45.1322C36.9746 45.2201 37.0199 45.3241 37.0199 45.444V52.5562C37.0199 52.6762 36.9746 52.7801 36.8841 52.8681C36.7935 52.956 36.6865 53 36.563 53C36.4354 53 36.3283 52.956 36.2419 52.8681C36.1554 52.7801 36.1122 52.6762 36.1122 52.5562V49.3899H31.0239V52.5562C31.0239 52.6762 30.9786 52.7801 30.8881 52.8681C30.8016 52.956 30.6966 53 30.5731 53Z" fill="#C1C1C1"/>
<path d="M42.0559 53C41.7513 53 41.599 52.8521 41.599 52.5562V45.444C41.599 45.1481 41.7513 45.0002 42.0559 45.0002C42.2124 45.0002 42.3647 45.0882 42.5129 45.2641L47.5641 51.5788H47.3418V45.444C47.3418 45.1481 47.4941 45.0002 47.7988 45.0002C48.0993 45.0002 48.2495 45.1481 48.2495 45.444V52.5562C48.2495 52.8521 48.0993 53 47.7988 53C47.6341 53 47.4818 52.912 47.3418 52.7361L42.2844 46.4215H42.5067V52.5562C42.5067 52.8521 42.3564 53 42.0559 53Z" fill="#C1C1C1"/>
<path d="M55.28 53C54.3537 53 53.6704 52.7881 53.2299 52.3643C52.7935 51.9366 52.5753 51.2729 52.5753 50.3734V47.6148C52.5753 46.7073 52.7935 46.0437 53.2299 45.6239C53.6704 45.2001 54.3517 44.9922 55.2738 45.0002H56.762C57.6883 45.0002 58.3696 45.2121 58.806 45.6359C59.2424 46.0597 59.4605 46.7233 59.4605 47.6268V50.3734C59.4605 51.2729 59.2424 51.9366 58.806 52.3643C58.3696 52.7881 57.6883 53 56.762 53H55.28ZM55.28 52.1185H56.762C57.2107 52.1185 57.5648 52.0645 57.8241 51.9566C58.0876 51.8486 58.2749 51.6687 58.3861 51.4168C58.4972 51.161 58.5528 50.8132 58.5528 50.3734V47.6268C58.5528 47.1911 58.4972 46.8472 58.3861 46.5954C58.2749 46.3395 58.0876 46.1576 57.8241 46.0497C57.5648 45.9377 57.2107 45.8818 56.762 45.8818H55.2738C54.8251 45.8778 54.4711 45.9297 54.2117 46.0377C53.9524 46.1416 53.765 46.3215 53.6498 46.5774C53.5386 46.8293 53.483 47.1751 53.483 47.6148V50.3734C53.483 50.8132 53.5386 51.161 53.6498 51.4168C53.7609 51.6687 53.9462 51.8486 54.2055 51.9566C54.469 52.0645 54.8272 52.1185 55.28 52.1185Z" fill="#C1C1C1"/>
<path d="M65.8675 52.994C65.1553 52.994 64.6078 52.8501 64.2249 52.5622C63.8462 52.2704 63.6198 51.8186 63.5457 51.2069C63.5333 51.059 63.5663 50.9471 63.6445 50.8711C63.7268 50.7912 63.8421 50.7512 63.9903 50.7512C64.1385 50.7512 64.2476 50.7872 64.3176 50.8591C64.3917 50.9311 64.439 51.039 64.4596 51.183C64.509 51.5348 64.6387 51.7786 64.8486 51.9146C65.0627 52.0465 65.4023 52.1125 65.8675 52.1125H67.6459C68.1976 52.1125 68.5743 52.0145 68.776 51.8186C68.9818 51.6187 69.0847 51.2569 69.0847 50.7332C69.0847 50.2015 68.9798 49.8357 68.7698 49.6358C68.564 49.4319 68.1894 49.3299 67.6459 49.3299H66.0651C65.3035 49.3299 64.7395 49.152 64.3731 48.7962C64.0109 48.4404 63.8297 47.8947 63.8297 47.1591C63.8297 46.4235 64.0088 45.8798 64.367 45.5279C64.7292 45.1761 65.2912 45.0002 66.0528 45.0002H67.6089C68.2758 45.0002 68.7883 45.1381 69.1465 45.414C69.5088 45.6859 69.7269 46.1076 69.801 46.6793C69.8175 46.8273 69.7846 46.9412 69.7022 47.0212C69.624 47.0971 69.5088 47.1351 69.3564 47.1351C69.2124 47.1351 69.1033 47.0991 69.0292 47.0272C68.9551 46.9512 68.9098 46.8432 68.8933 46.7033C68.8439 46.3955 68.7204 46.1816 68.5228 46.0617C68.3293 45.9417 68.0247 45.8818 67.6089 45.8818H66.0528C65.5423 45.8818 65.1944 45.9737 65.0092 46.1576C64.828 46.3375 64.7375 46.6713 64.7375 47.1591C64.7375 47.6468 64.8301 47.9846 65.0153 48.1725C65.2047 48.3565 65.5546 48.4484 66.0651 48.4484H67.6459C68.4446 48.4484 69.0353 48.6343 69.4182 49.0061C69.8011 49.3779 69.9925 49.9536 69.9925 50.7332C69.9925 51.5088 69.8011 52.0805 69.4182 52.4483C69.0353 52.8121 68.4446 52.994 67.6459 52.994H65.8675Z" fill="#C1C1C1"/>
<path d="M76.7742 53C75.8479 53 75.1645 52.7881 74.724 52.3643C74.2877 51.9366 74.0695 51.2729 74.0695 50.3734V47.6148C74.0695 46.7073 74.2877 46.0437 74.724 45.6239C75.1645 45.2001 75.8459 44.9922 76.768 45.0002H78.2562C79.1825 45.0002 79.8638 45.2121 80.3002 45.6359C80.7365 46.0597 80.9547 46.7233 80.9547 47.6268V50.3734C80.9547 51.2729 80.7365 51.9366 80.3002 52.3643C79.8638 52.7881 79.1825 53 78.2562 53H76.7742ZM76.7742 52.1185H78.2562C78.7049 52.1185 79.059 52.0645 79.3183 51.9566C79.5818 51.8486 79.7691 51.6687 79.8803 51.4168C79.9914 51.161 80.047 50.8132 80.047 50.3734V47.6268C80.047 47.1911 79.9914 46.8472 79.8803 46.5954C79.7691 46.3395 79.5818 46.1576 79.3183 46.0497C79.059 45.9377 78.7049 45.8818 78.2562 45.8818H76.768C76.3193 45.8778 75.9652 45.9297 75.7059 46.0377C75.4465 46.1416 75.2592 46.3215 75.144 46.5774C75.0328 46.8293 74.9772 47.1751 74.9772 47.6148V50.3734C74.9772 50.8132 75.0328 51.161 75.144 51.4168C75.2551 51.6687 75.4404 51.8486 75.6997 51.9566C75.9632 52.0645 76.3213 52.1185 76.7742 52.1185Z" fill="#C1C1C1"/>
<path d="M85.7438 53C85.4392 53 85.2869 52.8521 85.2869 52.5562V45.444C85.2869 45.1481 85.4392 45.0002 85.7438 45.0002H90.2578C90.3978 45.0002 90.5069 45.0402 90.5851 45.1202C90.6674 45.1961 90.7086 45.3041 90.7086 45.444C90.7086 45.7358 90.5583 45.8818 90.2578 45.8818H86.1946V48.5204H88.7881C89.0928 48.5204 89.2451 48.6663 89.2451 48.9581C89.2451 49.254 89.0928 49.4019 88.7881 49.4019H86.1946V52.5562C86.1946 52.8521 86.0443 53 85.7438 53Z" fill="#C1C1C1"/>
<path d="M96.6222 53C96.474 53 96.3608 52.964 96.2826 52.8921C96.2044 52.8161 96.1653 52.7062 96.1653 52.5622V45.8878H93.6952C93.547 45.8878 93.4338 45.8518 93.3556 45.7798C93.2774 45.7039 93.2383 45.5939 93.2383 45.45C93.2383 45.3061 93.2774 45.1961 93.3556 45.1202C93.4338 45.0442 93.547 45.0062 93.6952 45.0062H99.5492C99.6974 45.0062 99.8086 45.0442 99.8827 45.1202C99.9609 45.1961 100 45.3061 100 45.45C100 45.5939 99.9609 45.7039 99.8827 45.7798C99.8086 45.8518 99.6974 45.8878 99.5492 45.8878H97.073V52.5622C97.073 52.6982 97.0339 52.8061 96.9557 52.8861C96.8775 52.962 96.7663 53 96.6222 53Z" fill="#C1C1C1"/>
</svg>
